<svg width="163" height="162" viewBox="0 0 163 162" fill="none" xmlns="http://www.w3.org/2000/svg">
<rect x="85.2344" y="85.3242" width="25.5142" height="25.5142" fill="white"/>
<rect x="136.266" y="85.3242" width="25.5142" height="25.5142" fill="white"/>
<rect x="110.75" y="110.838" width="25.5142" height="25.5142" fill="white"/>
<rect x="85.2344" y="136.352" width="25.5142" height="25.5142" fill="white"/>
<path d="M145.485 140.604H140.523V145.211V145.566" stroke="#FFB800" stroke-width="3.40189"/>
<path d="M157.539 145.566L157.539 140.604L152.932 140.604L152.578 140.604" stroke="#FFB800" stroke-width="3.40189"/>
<path d="M140.523 152.652L140.523 157.613L145.13 157.613L145.485 157.613" stroke="#FFB800" stroke-width="3.40189"/>
<path d="M152.578 157.613L157.539 157.613L157.539 153.007L157.539 152.652" stroke="#FFB800" stroke-width="3.40189"/>
<rect x="108.195" y="15.5869" width="15.3085" height="22.9628" fill="white"/>
<rect x="123.5" y="38.5498" width="17.0095" height="22.1123" fill="white"/>
<rect x="85.2344" y="0.277344" width="25.8894" height="76.5426" fill="white"/>
<rect x="136.266" y="0.277344" width="25.8894" height="76.5426" fill="white"/>
<rect x="51.2266" y="76.8203" width="25.5142" height="25.5142" transform="rotate(180 51.2266 76.8203)" fill="#FFB800"/>
<rect x="25.7109" y="51.3066" width="25.5142" height="25.5142" transform="rotate(180 25.7109 51.3066)" fill="#FFB800"/>
<rect x="51.2266" y="25.793" width="25.5142" height="25.5142" transform="rotate(180 51.2266 25.793)" fill="#FFB800"/>
<rect x="25.7109" y="25.793" width="25.5142" height="25.5142" transform="rotate(180 25.7109 25.793)" fill="#FFB800"/>
<rect x="76.7422" y="51.3066" width="25.5142" height="25.5142" transform="rotate(180 76.7422 51.3066)" fill="#FFB800"/>
<rect x="76.7422" y="25.793" width="25.5142" height="25.5142" transform="rotate(180 76.7422 25.793)" fill="#FFB800"/>
<rect x="76.7422" y="76.8203" width="25.5142" height="25.5142" transform="rotate(180 76.7422 76.8203)" fill="#FFB800"/>
<rect x="0.203125" y="110.837" width="25.5142" height="25.5142" transform="rotate(-90 0.203125 110.837)" fill="white"/>
<rect x="0.203125" y="136.351" width="25.5142" height="25.5142" transform="rotate(-90 0.203125 136.351)" fill="white"/>
<rect x="0.203125" y="161.864" width="25.5142" height="25.5142" transform="rotate(-90 0.203125 161.864)" fill="white"/>
<rect x="25.7188" y="110.837" width="25.5142" height="25.5142" transform="rotate(-90 25.7188 110.837)" fill="white"/>
<rect x="51.2344" y="136.351" width="25.5142" height="25.5142" transform="rotate(-90 51.2344 136.351)" fill="white"/>
<rect x="51.2344" y="110.837" width="25.5142" height="25.5142" transform="rotate(-90 51.2344 110.837)" fill="white"/>
<rect x="25.7188" y="161.864" width="25.5142" height="25.5142" transform="rotate(-90 25.7188 161.864)" fill="white"/>
</svg>
